<svg height="480pt" viewBox="0 -1 480 480" width="480pt" xmlns="http://www.w3.org/2000/svg"><path d="m304 304.035156v-128h104v128zm0 0" fill="#348fd9"/><path d="m430.457031 264.035156h41.542969v-48h-41.542969c-1.707031-13.636718-4.875-27.046875-9.449219-40-1.246093-3.539062-2.550781-7.050781-4-10.488281l35.914063-20.714844-24-41.597656-36 20.800781c-10.582031-13.933594-23.003906-26.367187-36.921875-36.960937l20.761719-36-41.601563-24-20.671875 35.953125c-16.132812-6.777344-33.121093-11.304688-50.488281-13.449219v-41.542969h-48v41.542969c-17.367188 2.144531-34.355469 6.671875-50.488281 13.449219l-20.710938-35.914063-41.601562 24 20.800781 36c-13.929688 10.582031-26.363281 23-36.960938 36.921875l-36-20.800781-24 41.597656 35.914063 20.730469c-6.761719 16.128906-11.273437 33.113281-13.410156 50.472656h-41.542969v48h41.542969c2.148437 17.363282 6.671875 34.351563 13.449219 50.488282l-35.914063 20.710937 24 41.597656 36-20.757812c10.585937 13.917969 23.003906 26.335937 36.921875 36.917969l-20.800781 36 41.601562 24 20.726563-35.910157c16.128906 6.761719 33.113281 11.273438 50.472656 13.40625v41.546875h48v-41.546875c17.367188-2.144531 34.355469-6.671875 50.488281-13.445312l20.710938 35.910156 41.601562-24-20.800781-35.960937c13.933594-10.589844 26.367188-23.023438 36.960938-36.957032l36 20.757813 24-41.597657-35.914063-20.730468c1.449219-3.4375 2.753906-6.949219 4-10.488282 4.558594-12.9375 7.710937-26.328124 9.410156-39.941406zm-190.457031 104c-58.097656.121094-109.023438-38.816406-124.128906-94.914062-15.109375-56.097656 9.371094-115.347656 59.671875-144.417969 50.296875-29.070313 113.855469-20.703125 154.921875 20.390625 41.0625 41.097656 49.382812 104.664062 20.269531 154.941406-22.84375 39.566406-65.046875 63.957032-110.734375 64zm0 0" fill="#ffb531"/><path d="m197.40625 13.097656 47.585938 47.59375-33.9375 33.941406-47.589844-47.589843c-12.929688 30.402343-.558594 65.648437 28.535156 81.300781v229.066406c-24.847656 20.007813-31.167969 55.257813-14.820312 82.648438 16.351562 27.394531 50.375 38.5625 79.78125 26.191406l-47.59375-47.59375 33.945312-33.933594 47.589844 47.582032c6.6875-15.789063 6.757812-33.601563.195312-49.445313-6.5625-15.839844-19.203125-28.386719-35.097656-34.824219v-221.601562c28.164062-17.710938 38.058594-54.046875 22.769531-83.59375-15.292969-29.546875-50.671875-42.449219-81.394531-29.6875zm0 0" fill="#e0e0de"/><path d="m304 176.035156v128h-136c-8.835938 0-16-7.164062-16-16 0-8.839844 7.164062-16 16-16-8.835938 0-16-7.164062-16-16 0-8.839844 7.164062-16 16-16-8.835938 0-16-7.164062-16-16 0-8.839844 7.164062-16 16-16-8.835938 0-16-7.164062-16-16 0-8.839844 7.164062-16 16-16zm0 0" fill="#fec9a3"/><g fill="#feb784"><path d="m160 200.035156h24c4.417969 0 8 3.582032 8 8 0 4.417969-3.582031 8-8 8h-24c-4.417969 0-8-3.582031-8-8 0-4.417968 3.582031-8 8-8zm0 0"/><path d="m160 232.035156h24c4.417969 0 8 3.582032 8 8 0 4.417969-3.582031 8-8 8h-24c-4.417969 0-8-3.582031-8-8 0-4.417968 3.582031-8 8-8zm0 0"/><path d="m160 264.035156h24c4.417969 0 8 3.582032 8 8 0 4.417969-3.582031 8-8 8h-24c-4.417969 0-8-3.582031-8-8 0-4.417968 3.582031-8 8-8zm0 0"/><path d="m296 176.035156-40-32v32zm0 0"/></g><path d="m133.601562 125.746094-11.203124-11.425782c4.121093-4.035156 8.441406-7.855468 12.945312-11.453124l9.984375 12.503906c-4.082031 3.253906-7.996094 6.71875-11.726563 10.375zm0 0" fill="#ffcb73"/><path d="m88.183594 232.425781-16-.800781c1.730468-37.140625 15.859375-72.632812 40.128906-100.800781l12.160156 10.402343c-21.957031 25.484376-34.730468 57.597657-36.289062 91.199219zm0 0" fill="#ffcb73"/><path d="m192 304.035156h64v16h-64zm0 0" fill="#ccccca"/><path d="m72.199219 231.640625 16 .800781c1.5625-33.605468 14.34375-65.714844 36.304687-91.199218l-12.160156-10.402344c-24.277344 28.167968-38.410156 63.660156-40.144531 100.800781zm0 0"/><path d="m298.167969 345.035156 7.742187 14c44.429688-24.578125 71.464844-71.855468 70.117188-122.609375-1.34375-50.753906-30.847656-96.53125-76.515625-118.71875l-7.007813 14.398438c17.128906 8.347656 32.015625 20.664062 43.425782 35.929687h-37.121094l-34.808594-27.847656v-9.515625c3.34375-2.316406 6.460938-4.9375 9.320312-7.832031.800782-.796875 1.457032-1.503906 2.0625-2.261719 17.320313-18.8125 23.34375-45.410156 15.816407-69.847656-3.402344-11.226563-9.566407-21.421875-17.925781-29.648438-1.335938-1.335937-2.671876-2.503906-4-3.65625-.222657-.195312-.457032-.378906-.707032-.542969-14.78125-12.570312-34.070312-18.53125-53.367187-16.488281-7.167969.726563-14.191407 2.511719-20.839844 5.296875-2.460937 1.027344-4.246094 3.214844-4.761719 5.832032-.515625 2.617187.308594 5.320312 2.195313 7.207031l41.855469 41.941406-22.617188 22.617187-41.925781-41.871093c-1.910157-1.878907-4.621094-2.699219-7.25-2.191407-2.621094.523438-4.804688 2.328126-5.824219 4.800782-1.1875 2.796875-2.167969 5.679687-2.933594 8.621094-6.972656 24.964843.007813 51.746093 18.277344 70.128906 2.789062 2.882812 5.867188 5.46875 9.183594 7.71875 1.066406.800781 2.210937 1.601562 3.441406 2.402344v35.136718h-16c-9.460938.003906-18.035156 5.570313-21.894531 14.207032-3.859375 8.640624-2.285157 18.738281 4.023437 25.792968-8.171875 9.101563-8.171875 22.898438 0 32-8.171875 9.101563-8.171875 22.898438 0 32-6.308594 7.050782-7.882812 17.152344-4.023437 25.789063s12.433593 14.203125 21.894531 14.210937h16v41.695313c-.96875.871093-1.910156 1.785156-2.855469 2.726562-16.613281 16.609375-24.078125 40.28125-20 63.417969 6.296875 34.332031 36.183594 59.289062 71.085938 59.359375 9.566406.007813 19.035156-1.894531 27.847656-5.601563 2.449219-1.035156 4.222656-3.222656 4.734375-5.832031.507812-2.609375-.3125-5.300781-2.1875-7.183593l-41.871094-41.945313 22.605469-22.636719 41.945313 41.863282c1.871093 1.871093 4.542968 2.695312 7.144531 2.207031 2.601562-.492188 4.789062-2.238281 5.847656-4.664063 1.257813-2.90625 2.289063-5.902344 3.085937-8.96875 6.839844-24.621094.0625-51.019531-17.789062-69.304687-.191406-.246094-.398438-.484375-.617188-.710938-5.515624-5.570312-11.929687-10.171875-18.976562-13.605469v-30.816406h72c-10.144531 13.542969-23.035156 24.789063-37.832031 33zm-24.976563-177h-9.191406v-7.351562zm-90.398437-56.457031c-12.875-12.941406-18.640625-31.339844-15.457031-49.3125l38.0625 37.992187c3.125 3.121094 8.191406 3.121094 11.3125 0l33.921874-33.921874c3.121094-3.121094 3.121094-8.1875 0-11.308594l-38.046874-38.128906c1.421874-.246094 2.855468-.445313 4.300781-.59375 15.046875-1.695313 30.113281 3.007812 41.519531 12.960937.296875.289063.617188.558594.953125.800781.863281.75 1.738281 1.519532 2.617187 2.398438 6.488282 6.382812 11.269532 14.296875 13.902344 23.007812 5.886719 19.085938 1.136719 39.859375-12.453125 54.488282-.195312.214843-.378906.433593-.546875.65625-.308594.367187-.640625.714843-.992187 1.039062-3.019531 3.042969-6.402344 5.699219-10.078125 7.90625-2.359375 1.449219-3.800782 4.019531-3.808594 6.792969v41.679687h-48v-39.679687c0-2.945313-1.613281-5.652344-4.207031-7.050781-2.058594-1.085938-4.023438-2.339844-5.871094-3.75-2.585937-1.738282-4.980469-3.742188-7.144531-5.976563zm88.40625 255.785156c.199219.246094.410156.484375.632812.710938 12.777344 12.890625 18.476563 31.195312 15.28125 49.0625l-38.121093-38.046875c-3.125-3.117188-8.179688-3.117188-11.304688 0l-33.917969 33.917968c-3.121093 3.125-3.121093 8.183594 0 11.304688l38.054688 38.121094c-7.953125 1.378906-16.109375 1.015625-23.914063-1.054688-21.1875-5.398437-37.234375-22.730468-40.988281-44.273437-3.1875-17.996094 2.613281-36.417969 15.535156-49.34375 1.183594-1.183594 2.398438-2.296875 3.949219-3.632813.257812-.207031 1.027344-.863281 1.25-1.085937 1.5-1.5 2.339844-3.53125 2.34375-5.648438v-45.359375h48v36c0 3.265625 1.984375 6.203125 5.015625 7.421875 6.800781 2.703125 12.988281 6.753907 18.183594 11.90625zm24.800781-71.328125h-128c-4.417969 0-8-3.582031-8-8 0-4.417968 3.582031-8 8-8h24v-16h-24c-4.417969 0-8-3.582031-8-8 0-4.417968 3.582031-8 8-8h24v-16h-24c-4.417969 0-8-3.582031-8-8 0-4.417968 3.582031-8 8-8h24v-16h-24c-4.417969 0-8-3.582031-8-8 0-4.417968 3.582031-8 8-8h128zm16 0v-112h34.097656c18.535156 35.03125 18.535156 76.964844 0 112zm0 0"/><path d="m163.503906 352.496094 8.992188-13.261719c-32.394532-22.054687-51.988282-58.527344-52.484375-97.714844-.496094-39.183593 18.164062-76.148437 49.988281-99.015625l-9.335938-12.988281c-36.070312 25.914063-57.21875 67.804687-56.652343 112.21875.5625 44.410156 22.773437 85.75 59.492187 110.738281zm0 0"/><path d="m8 272.035156h34.59375c2.148438 13.320313 5.628906 26.390625 10.398438 39.015625l-29.871094 17.261719c-3.824219 2.210938-5.132813 7.097656-2.929688 10.921875l24 41.597656c2.210938 3.828125 7.109375 5.136719 10.9375 2.921875l29.910156-17.320312c8.535157 10.457031 18.101563 20.019531 28.5625 28.550781l-17.320312 29.921875c-1.066406 1.835938-1.359375 4.023438-.8125 6.078125.546875 2.050781 1.890625 3.804687 3.730469 4.867187l41.601562 24c3.824219 2.199219 8.714844.886719 10.917969-2.9375l7.441406-12.878906-13.847656-8-3.449219 5.957032-27.734375-16 16.800782-28.992188c2.03125-3.496094 1.136718-7.957031-2.089844-10.398438-13.363282-10.121093-25.28125-22.023437-35.425782-35.367187-2.4375-3.226563-6.902343-4.121094-10.398437-2.089844l-28.984375 16.800781-16-27.726562 28.929688-16.730469c3.480468-2.015625 4.921874-6.304687 3.367187-10.015625-6.460937-15.472656-10.796875-31.75-12.878906-48.390625-.484375-4.015625-3.886719-7.039062-7.929688-7.046875h-33.519531v-32h33.519531c4.027344 0 7.429688-2.996094 7.9375-6.992187 1.644531-13.082031 4.671875-25.953125 9.023438-38.402344 1.183593-3.390625 2.46875-6.730469 3.855469-10.015625 1.5625-3.710938.117187-8.007812-3.367188-10.023438l-28.929688-16.695312 16-27.730469 28.984376 16.800781c3.496093 2.035157 7.960937 1.136719 10.402343-2.085937 10.121094-13.367187 22.023438-25.292969 35.375-35.441406 3.222657-2.441407 4.121094-6.902344 2.085938-10.398438l-16.796875-28.992187 26.199218-15.113282-8-13.855468-33.089843 19.128906c-1.839844 1.0625-3.183594 2.8125-3.730469 4.863281-.546875 2.054688-.253906 4.242188.8125 6.078125l17.320312 29.921875c-10.460937 8.53125-20.027343 18.097657-28.5625 28.550781l-29.910156-17.320312c-1.832031-1.078125-4.023437-1.367188-6.074218-.796875-2.050782.542969-3.800782 1.882813-4.863282 3.71875l-24 41.597656c-2.203125 3.824219-.894531 8.710938 2.929688 10.921875l29.847656 17.265625c-.535156 1.445313-1.066406 2.898438-1.601562 4.367188-3.945313 11.265625-6.882813 22.859375-8.773438 34.648437h-34.59375c-4.417969 0-8 3.582032-8 8v48c0 4.417969 3.582031 8 8 8zm0 0"/><path d="m145.328125 115.371094-9.984375-12.503906c-4.503906 3.597656-8.824219 7.417968-12.945312 11.453124l11.203124 11.425782c3.730469-3.65625 7.644532-7.121094 11.726563-10.375zm0 0"/><path d="m472 208.035156h-34.59375c-2.148438-13.324218-5.628906-26.394531-10.398438-39.015625l29.855469-17.265625c3.820313-2.210937 5.132813-7.097656 2.929688-10.921875l-24-41.597656c-1.066407-1.835937-2.8125-3.175781-4.863281-3.71875-2.050782-.570313-4.242188-.28125-6.074219.796875l-29.894531 17.320312c-8.535157-10.453124-18.101563-20.019531-28.5625-28.550781l17.320312-29.921875c1.066406-1.835937 1.359375-4.023437.8125-6.078125-.546875-2.050781-1.890625-3.800781-3.730469-4.863281l-41.601562-24c-3.824219-2.203125-8.714844-.890625-10.917969 2.933594l-20.722656 35.839844 13.855468 8 16.722657-28.917969 27.734375 16-16.800782 28.992187c-2.03125 3.496094-1.136718 7.957032 2.089844 10.398438 13.363282 10.125 25.28125 22.023437 35.425782 35.367187 2.4375 3.226563 6.902343 4.121094 10.398437 2.089844l28.984375-16.800781 16 27.730468-28.929688 16.726563c-3.480468 2.015625-4.921874 6.304687-3.367187 10.015625 6.460937 15.472656 10.796875 31.753906 12.878906 48.390625.484375 4.015625 3.886719 7.042969 7.929688 7.050781h33.519531v32h-33.519531c-4.027344 0-7.429688 2.996094-7.9375 6.992188-2.082031 16.636718-6.417969 32.917968-12.878907 48.390625-1.554687 3.710937-.113281 8 3.367188 10.015625l28.929688 16.726562-16 27.730469-28.984376-16.800781c-3.496093-2.03125-7.960937-1.136719-10.402343 2.085937-10.121094 13.371094-22.023438 25.292969-35.375 35.441407-3.222657 2.441406-4.121094 6.90625-2.085938 10.402343l16.796875 28.988281-27.734375 16-8.121093-13.972656-13.855469 8 12.074219 20.878906c2.203124 3.824219 7.09375 5.136719 10.917968 2.9375l41.601563-24c1.839843-1.0625 3.179687-2.816406 3.730469-4.867187.546874-2.054687.253906-4.242187-.8125-6.078125l-17.3125-29.921875c10.460937-8.53125 20.027343-18.09375 28.5625-28.550781l29.910156 17.320312c3.828125 2.214844 8.726562.90625 10.9375-2.921875l24-41.597656c2.203125-3.824219.894531-8.710937-2.929688-10.921875l-29.855468-17.261719c4.761718-12.625 8.242187-25.695312 10.382812-39.015625h34.59375c4.417969 0 8-3.582031 8-8v-48c0-4.417968-3.582031-8-8-8zm0 0"/></svg>