<?xml version="1.0" encoding="iso-8859-1"?>
<!-- Generator: Adobe Illustrator 19.0.0, SVG Export Plug-In . SVG Version: 6.00 Build 0)  -->
<svg version="1.1" id="Capa_1" xmlns="http://www.w3.org/2000/svg" xmlns:xlink="http://www.w3.org/1999/xlink" x="0px" y="0px"
	 viewBox="0 0 512 512" style="enable-background:new 0 0 512 512;" xml:space="preserve">
<g>
	<path style="fill:#2196F3;" d="M509.868,408l-83.2-144.288c-2.272-3.936-6.08-6.688-10.496-7.648
		c-4.512-0.928-9.056,0.032-12.704,2.656L272.876,352.8c-6.656,4.768-8.608,13.856-4.512,20.96L343.596,504
		c2.88,4.96,8.16,8,13.856,8c0.416,0,0.8,0,1.216-0.032c6.112-0.48,11.456-4.448,13.696-10.144l32.48-83.424l88.768,13.44
		c6.24,0.96,12.192-1.728,15.616-6.784C512.652,419.936,512.908,413.344,509.868,408z"/>
	<path style="fill:#2196F3;" d="M108.556,258.688c-3.68-2.624-8.32-3.584-12.704-2.656c-4.416,0.96-8.224,3.744-10.496,7.648
		l-83.2,144.288c-3.072,5.344-2.816,11.936,0.64,17.024c3.488,5.056,9.568,7.744,15.616,6.784l88.768-13.44l32.48,83.424
		c2.24,5.728,7.552,9.696,13.696,10.144C153.74,512,154.124,512,154.54,512c5.696,0,10.976-3.04,13.856-8l75.2-130.24
		c4.096-7.136,2.144-16.192-4.512-20.96L108.556,258.688z"/>
</g>
<circle style="fill:#FFC107;" cx="255.98" cy="192" r="192"/>
<path style="fill:#FAFAFA;" d="M271.98,288c-8.832,0-16-7.168-16-16V128h-16c-8.832,0-16-7.168-16-16s7.168-16,16-16h32
	c8.832,0,16,7.168,16,16v160C287.98,280.832,280.812,288,271.98,288z"/>
<g>
</g>
<g>
</g>
<g>
</g>
<g>
</g>
<g>
</g>
<g>
</g>
<g>
</g>
<g>
</g>
<g>
</g>
<g>
</g>
<g>
</g>
<g>
</g>
<g>
</g>
<g>
</g>
<g>
</g>
</svg>
