<svg xmlns="http://www.w3.org/2000/svg" width="660.783" height="660.81" viewBox="0 0 660.783 660.81">
  <g id="Group_55" data-name="Group 55" transform="translate(-310 -70)">
    <g id="sale" transform="translate(384.374 144.387)">
      <path id="Path_9" data-name="Path 9" d="M630.435,330.427l28.991-75.616a20.675,20.675,0,0,0-6.277-23.457l-62.855-50.961L577.574,100.4a20.643,20.643,0,0,0-17.18-17.139L480.4,70.541l-50.92-62.9a20.681,20.681,0,0,0-23.416-6.277L330.407,30.4,254.791,1.408a20.6,20.6,0,0,0-23.416,6.277l-50.961,62.9L100.42,83.3A20.691,20.691,0,0,0,83.282,100.44l-12.72,79.994L7.666,231.4a20.66,20.66,0,0,0-6.277,23.416l28.991,75.616L1.388,406.043a20.6,20.6,0,0,0,6.277,23.416l62.9,50.92,12.72,79.994a20.643,20.643,0,0,0,17.139,17.18l79.994,12.72,50.961,62.855a20.549,20.549,0,0,0,23.457,6.277l75.575-28.95,75.616,28.991a20.665,20.665,0,0,0,23.457-6.319l50.92-62.855,79.994-12.72a20.688,20.688,0,0,0,17.18-17.18l12.72-79.994,62.855-50.92a20.614,20.614,0,0,0,6.277-23.416Z" transform="translate(-74.384 -74.387)" fill="#f44336"/>
    </g>
    <g id="Group_54" data-name="Group 54" transform="translate(18 -11.018)">
      <g id="Group_53" data-name="Group 53" transform="translate(508.99 144)">
        <path id="Path_10" data-name="Path 10" d="M208.022,224.035a48,48,0,1,1,48-48A48.059,48.059,0,0,1,208.022,224.035Zm0-64a16,16,0,1,0,16,16A16.006,16.006,0,0,0,208.022,160.035Z" fill="#fafafa"/>
        <path id="Path_11" data-name="Path 11" d="M304.022,384.035a48,48,0,1,1,48-48A48.059,48.059,0,0,1,304.022,384.035Zm0-64a16,16,0,1,0,16,16A16.047,16.047,0,0,0,304.022,320.035Z" fill="#fafafa"/>
        <path id="Path_12" data-name="Path 12" d="M176.022,384.035a16,16,0,0,1-12.992-25.312l160-224a16,16,0,0,1,26.048,18.592l-160,224A16.068,16.068,0,0,1,176.022,384.035Z" fill="#fafafa"/>
      </g>
      <text id="_95" data-name="95" transform="translate(517 493)" fill="#fff" font-size="229" font-family="Roboto-Bold, Roboto" font-weight="700" letter-spacing="0.03em"><tspan x="-134.819" y="0">95</tspan></text>
    </g>
  </g>
</svg>
