<svg id="svg" xmlns="http://www.w3.org/2000/svg" xmlns:xlink="http://www.w3.org/1999/xlink" width="400" height="79.3160144689247" viewBox="0, 0, 400,79.3160144689247"><g id="svgg"><path id="path0" d="M152.937 0.950 C 152.982 1.482,153.139 3.004,153.287 4.333 C 153.690 7.956,153.687 20.327,153.282 23.667 C 152.472 30.364,151.038 36.519,149.488 39.963 C 149.311 40.355,149.167 40.742,149.167 40.823 C 149.167 40.977,148.119 43.340,147.796 43.917 C 147.693 44.100,147.348 44.737,147.029 45.333 C 146.711 45.929,146.236 46.739,145.975 47.133 C 145.714 47.528,145.500 47.880,145.500 47.918 C 145.500 48.267,142.346 52.289,141.125 53.496 C 140.781 53.836,140.500 54.192,140.500 54.287 C 140.500 54.632,143.261 55.452,145.968 55.913 L 147.687 56.205 149.357 54.477 C 151.569 52.190,151.573 52.185,151.450 52.061 C 151.391 52.002,151.553 51.683,151.811 51.352 C 152.368 50.637,153.488 48.931,153.817 48.296 C 153.945 48.048,154.111 47.882,154.186 47.929 C 154.331 48.018,155.833 45.016,155.833 44.637 C 155.833 44.513,155.988 44.001,156.177 43.498 C 158.933 36.174,160.001 26.449,158.942 18.310 C 158.791 17.151,158.626 15.501,158.575 14.643 C 158.524 13.785,158.336 12.508,158.158 11.806 C 157.979 11.103,157.833 10.372,157.833 10.181 C 157.833 9.990,157.764 9.833,157.680 9.833 C 157.596 9.833,157.475 9.590,157.412 9.292 C 157.349 8.994,157.119 8.124,156.900 7.358 C 156.680 6.593,156.543 5.898,156.595 5.814 C 156.685 5.669,156.270 4.361,155.199 1.417 L 154.714 0.083 153.785 0.034 L 152.856 -0.016 152.937 0.950 M196.667 42.000 L 196.667 79.167 197.583 79.167 L 198.500 79.167 198.500 42.000 L 198.500 4.833 197.583 4.833 L 196.667 4.833 196.667 42.000 M384.083 14.946 C 382.478 15.302,380.528 16.155,380.836 16.366 C 380.880 16.397,381.532 16.889,382.283 17.461 C 383.808 18.621,383.748 18.606,385.528 18.224 C 386.935 17.921,386.633 17.890,391.739 18.863 C 394.317 19.355,396.771 19.078,399.208 18.022 C 400.373 17.517,400.307 17.402,397.473 15.040 C 397.237 14.842,397.123 14.847,396.686 15.073 C 395.470 15.702,393.350 16.044,392.005 15.828 C 389.692 15.456,389.256 15.377,388.031 15.104 C 386.903 14.854,384.868 14.772,384.083 14.946 M285.794 39.208 L 285.747 55.417 285.370 56.303 C 283.845 59.887,280.386 61.353,274.023 61.110 C 269.370 60.933,267.510 60.157,266.376 57.920 C 265.943 57.065,265.440 55.066,265.595 54.815 C 266.369 53.563,266.256 46.732,265.428 44.752 C 265.284 44.408,265.167 44.016,265.167 43.881 C 265.167 42.477,262.117 38.496,259.750 36.811 C 253.547 32.394,241.118 32.177,234.584 36.370 C 230.045 39.283,227.529 44.141,227.505 50.043 C 227.500 51.273,227.903 54.542,228.099 54.859 C 228.240 55.086,227.722 57.163,227.338 57.917 C 226.186 60.172,224.256 60.947,219.375 61.112 L 216.500 61.209 216.500 64.128 L 216.500 67.048 220.042 66.933 C 226.012 66.738,228.553 65.905,232.592 62.814 C 232.693 62.737,232.942 62.838,233.176 63.050 C 237.421 66.901,248.072 68.171,255.500 65.712 C 257.467 65.061,259.682 63.865,260.712 62.899 C 260.858 62.763,261.162 62.892,261.887 63.399 C 263.944 64.837,266.043 65.909,267.333 66.181 C 267.654 66.248,268.479 66.433,269.167 66.591 C 271.526 67.133,279.161 66.997,282.000 66.363 C 289.134 64.769,292.399 62.352,294.195 57.333 L 294.583 56.250 294.632 39.625 L 294.682 23.000 290.261 23.000 L 285.841 23.000 285.794 39.208 M298.000 38.708 C 298.000 56.894,297.948 56.129,299.400 59.142 C 301.046 62.555,305.719 65.228,312.333 66.537 L 314.250 66.917 334.500 66.917 L 354.750 66.917 356.500 66.524 C 362.865 65.096,365.964 62.235,366.493 57.298 C 366.594 56.359,366.667 51.410,366.667 45.507 L 366.667 35.333 362.171 35.333 L 357.676 35.333 357.627 46.042 C 357.570 58.434,357.614 58.043,356.075 59.603 C 354.891 60.802,354.135 61.012,350.625 61.120 L 347.833 61.205 347.833 48.850 L 347.833 36.495 343.375 36.539 L 338.917 36.583 338.874 48.875 L 338.831 61.167 333.916 61.167 L 329.000 61.167 329.000 48.417 L 329.000 35.667 324.750 35.667 L 320.500 35.667 320.500 48.417 L 320.500 61.167 318.625 61.166 C 312.952 61.165,309.057 59.481,307.385 56.307 L 306.917 55.417 306.870 39.208 L 306.822 23.000 302.411 23.000 L 298.000 23.000 298.000 38.708 M372.133 43.792 L 372.083 64.583 371.583 65.739 C 370.666 67.861,369.285 68.911,366.500 69.605 L 364.917 70.000 331.459 70.000 L 298.000 70.000 298.000 73.669 L 298.000 77.338 331.958 77.294 C 364.030 77.252,365.991 77.233,367.250 76.948 C 372.143 75.842,374.991 74.490,377.295 72.181 C 378.222 71.251,380.000 68.604,380.000 68.153 C 380.000 68.060,380.119 67.754,380.264 67.473 C 381.130 65.798,381.167 64.816,381.167 43.147 L 381.167 23.000 376.674 23.000 L 372.182 23.000 372.133 43.792 M385.667 45.000 L 385.667 67.000 390.167 67.000 L 394.667 67.000 394.667 45.000 L 394.667 23.000 390.167 23.000 L 385.667 23.000 385.667 45.000 M27.874 38.958 L 27.917 50.083 29.833 50.083 L 31.750 50.083 31.794 44.497 C 31.844 38.142,31.674 38.793,33.442 38.172 C 35.088 37.593,36.288 37.834,37.045 38.896 C 37.406 39.402,37.419 39.567,37.500 44.750 L 37.583 50.083 39.458 50.130 L 41.333 50.178 41.333 44.612 C 41.333 37.190,41.143 36.395,39.075 35.169 L 38.089 34.583 35.919 34.599 C 34.116 34.611,33.595 34.675,32.833 34.974 C 32.329 35.171,31.898 35.333,31.875 35.333 C 31.852 35.333,31.833 33.646,31.833 31.583 L 31.833 27.833 29.832 27.833 L 27.831 27.833 27.874 38.958 M4.444 29.444 C 4.383 29.506,4.332 33.499,4.330 38.319 C 4.325 49.092,4.369 48.930,1.301 49.641 C -0.154 49.979,-0.182 50.046,0.272 52.119 C 0.514 53.222,0.628 53.486,0.830 53.408 C 0.969 53.354,1.421 53.244,1.833 53.162 C 2.657 53.000,4.261 52.464,5.155 52.053 C 5.988 51.669,7.238 50.346,7.652 49.411 C 8.250 48.059,8.327 46.759,8.330 37.875 L 8.333 29.333 6.444 29.333 C 5.406 29.333,4.506 29.383,4.444 29.444 M16.225 34.643 C 9.274 35.895,8.280 46.933,14.858 49.823 C 16.689 50.627,19.685 50.563,21.599 49.678 C 22.537 49.244,24.333 47.763,24.333 47.423 C 24.333 47.342,24.443 47.155,24.578 47.006 C 25.738 45.724,26.118 41.500,25.273 39.280 C 23.930 35.755,20.321 33.906,16.225 34.643 M48.917 34.609 C 48.297 34.679,47.384 34.915,44.948 35.632 L 43.978 35.917 44.084 36.500 C 44.142 36.821,44.228 40.027,44.276 43.625 L 44.363 50.167 46.179 50.167 L 47.996 50.167 48.040 44.298 L 48.083 38.430 48.667 38.285 C 51.126 37.671,52.026 37.748,53.049 38.662 L 53.583 39.139 53.667 44.611 L 53.750 50.083 55.708 50.130 L 57.667 50.177 57.667 44.783 C 57.667 37.022,57.444 36.311,54.614 35.021 C 53.794 34.647,50.601 34.416,48.917 34.609 M63.917 34.644 C 59.070 35.554,58.457 41.253,63.000 43.161 C 63.229 43.257,63.616 43.448,63.859 43.584 C 64.102 43.721,64.389 43.833,64.496 43.833 C 64.890 43.833,66.126 44.833,66.325 45.313 C 66.943 46.806,64.981 47.621,62.495 46.904 C 60.609 46.359,60.576 46.365,60.253 47.276 C 60.096 47.720,59.850 48.365,59.707 48.710 C 59.399 49.456,59.325 49.372,60.667 49.801 C 66.146 51.554,70.583 49.736,70.583 45.738 C 70.583 42.976,69.764 42.109,65.608 40.475 C 62.507 39.255,63.902 36.986,67.172 37.930 C 69.142 38.498,69.033 38.540,69.547 37.018 C 69.796 36.280,70.000 35.604,70.000 35.516 C 70.000 34.912,65.742 34.301,63.917 34.644 M77.833 34.660 C 73.821 35.429,71.339 39.857,72.318 44.500 C 74.073 52.827,86.496 52.196,87.353 43.736 C 87.984 37.516,83.791 33.519,77.833 34.660 M94.167 34.653 C 93.274 34.782,92.206 35.067,90.333 35.678 C 89.534 35.938,89.424 36.026,89.474 36.363 C 89.505 36.576,89.568 39.769,89.612 43.458 L 89.693 50.167 91.597 50.167 L 93.500 50.167 93.500 44.292 L 93.500 38.417 94.709 38.123 C 96.259 37.745,96.672 37.755,97.686 38.191 C 99.073 38.788,99.071 38.775,99.167 44.833 L 99.250 50.083 101.125 50.130 L 103.000 50.178 103.000 44.260 C 103.000 37.555,102.956 37.303,101.554 35.985 C 100.248 34.758,97.220 34.212,94.167 34.653 M19.388 38.154 C 20.985 38.881,21.678 40.683,21.420 43.437 C 21.010 47.811,15.914 48.422,14.910 44.217 C 13.926 40.100,16.377 36.782,19.388 38.154 M80.958 38.090 C 83.797 39.276,83.971 45.300,81.207 46.729 C 79.560 47.581,77.592 46.759,76.856 44.913 C 75.259 40.910,77.758 36.753,80.958 38.090 M249.667 38.914 C 251.123 39.201,251.923 39.469,252.543 39.875 C 252.788 40.035,253.050 40.167,253.124 40.167 C 253.321 40.167,255.158 42.053,255.418 42.521 C 258.080 47.321,257.761 54.870,254.757 58.143 C 250.825 62.429,241.813 62.139,238.541 57.622 C 236.031 54.157,235.735 47.406,237.908 43.206 C 239.777 39.594,244.459 37.885,249.667 38.914 M107.333 66.583 L 107.333 77.833 109.167 77.833 L 111.000 77.833 111.000 66.583 L 111.000 55.333 109.167 55.333 L 107.333 55.333 107.333 66.583 M26.972 56.908 C 18.896 58.677,16.646 70.725,23.417 75.942 C 26.385 78.229,31.274 78.665,35.020 76.977 C 35.735 76.655,35.780 76.598,35.649 76.190 C 35.571 75.948,35.362 75.300,35.185 74.750 C 34.806 73.570,34.628 73.495,33.445 74.017 C 32.139 74.594,29.098 74.587,27.817 74.005 C 21.403 71.089,22.857 60.146,29.655 60.171 C 30.707 60.174,32.791 60.621,33.481 60.990 C 34.357 61.459,34.489 61.326,35.359 59.109 C 35.813 57.953,35.751 57.864,34.182 57.399 C 31.697 56.662,28.949 56.475,26.972 56.908 M70.333 60.411 L 70.333 62.500 69.500 62.500 L 68.667 62.500 68.667 64.083 L 68.667 65.667 69.236 65.667 C 70.394 65.667,70.333 65.412,70.341 70.226 C 70.352 76.782,70.734 77.639,73.889 78.179 C 75.871 78.518,79.535 77.742,79.251 77.043 C 79.186 76.882,79.017 76.412,78.875 76.000 C 78.733 75.587,78.544 75.044,78.455 74.792 C 78.270 74.268,77.973 74.222,77.109 74.583 C 76.419 74.872,75.126 74.913,74.656 74.661 C 74.350 74.497,74.333 74.269,74.333 70.161 L 74.333 65.833 76.417 65.833 L 78.500 65.833 78.500 64.167 L 78.500 62.500 76.422 62.500 L 74.344 62.500 74.297 60.458 L 74.250 58.417 72.292 58.370 L 70.333 58.323 70.333 60.411 M43.167 62.107 C 38.602 62.767,36.325 65.266,36.198 69.750 C 36.049 75.021,38.757 77.917,43.833 77.916 C 49.915 77.915,53.353 71.950,50.605 66.168 C 49.368 63.564,45.959 61.703,43.167 62.107 M59.000 62.187 C 57.470 62.354,54.964 62.958,53.606 63.487 C 53.190 63.649,53.145 63.731,53.251 64.128 C 53.319 64.378,53.408 67.565,53.450 71.208 L 53.527 77.833 55.428 77.833 L 57.329 77.833 57.373 71.964 L 57.417 66.095 58.333 65.808 C 60.309 65.188,62.038 65.602,62.672 66.844 C 62.977 67.442,63.000 67.845,63.000 72.660 L 63.000 77.833 64.917 77.833 L 66.833 77.833 66.833 71.891 L 66.833 65.949 66.429 65.099 C 65.361 62.852,62.650 61.789,59.000 62.187 M86.250 62.182 C 84.556 62.392,83.465 62.640,82.250 63.092 C 81.608 63.330,80.942 63.569,80.769 63.622 C 80.483 63.709,80.464 63.839,80.560 65.067 C 80.617 65.809,80.665 68.985,80.666 72.125 L 80.667 77.833 82.583 77.833 L 84.500 77.833 84.500 71.841 L 84.500 65.849 85.125 65.675 C 85.894 65.462,87.901 65.447,88.608 65.650 C 89.197 65.819,89.306 65.656,89.982 63.585 C 90.362 62.425,90.337 62.391,89.001 62.251 C 88.496 62.198,87.896 62.133,87.667 62.107 C 87.438 62.080,86.800 62.114,86.250 62.182 M97.083 62.118 C 90.997 62.687,87.795 69.430,91.108 74.702 C 94.026 79.347,102.085 79.063,104.351 74.236 C 107.208 68.149,103.246 61.543,97.083 62.118 M118.333 62.136 C 112.563 62.703,111.373 68.474,116.529 70.889 C 117.201 71.203,118.028 71.589,118.368 71.746 C 121.848 73.354,119.194 75.693,115.327 74.426 C 113.905 73.959,113.978 73.927,113.494 75.250 C 112.810 77.119,112.795 77.068,114.193 77.521 C 116.077 78.130,120.008 78.105,121.333 77.476 C 123.286 76.547,124.251 75.065,124.132 73.174 C 123.979 70.746,122.959 69.707,119.271 68.226 C 115.551 66.732,117.713 64.379,121.489 65.814 C 122.511 66.202,122.495 66.222,123.440 63.311 C 123.627 62.736,120.215 61.951,118.333 62.136 M45.245 65.881 C 48.117 67.507,47.695 73.709,44.655 74.571 C 42.111 75.292,40.449 73.556,40.439 70.167 C 40.428 66.457,42.695 64.436,45.245 65.881 M99.162 65.933 C 101.740 67.639,101.578 73.227,98.917 74.413 C 96.256 75.598,94.038 73.448,94.204 69.844 C 94.364 66.341,96.834 64.393,99.162 65.933 M245.702 69.988 C 243.429 70.567,243.436 73.592,245.711 74.167 C 247.640 74.654,248.250 74.915,248.301 75.276 C 248.464 76.415,246.080 76.446,245.684 75.310 C 245.533 74.880,245.444 74.833,244.759 74.833 L 244.000 74.833 244.000 75.475 C 244.000 77.693,248.632 78.336,249.786 76.278 C 250.484 75.032,249.633 73.310,248.204 73.080 C 246.201 72.758,245.330 72.194,245.920 71.604 C 246.488 71.036,248.167 71.457,248.167 72.167 C 248.167 72.258,248.548 72.333,249.013 72.333 L 249.860 72.333 249.747 71.792 C 249.432 70.282,247.656 69.490,245.702 69.988 M218.799 70.625 C 218.661 70.969,218.462 71.494,218.357 71.792 C 217.691 73.687,217.120 75.254,216.811 76.031 C 216.326 77.249,216.363 77.333,217.387 77.333 C 218.274 77.333,218.275 77.333,218.429 76.708 L 218.583 76.083 219.846 76.035 L 221.109 75.987 221.331 76.660 L 221.553 77.333 222.443 77.333 C 222.996 77.333,223.333 77.262,223.333 77.144 C 223.333 76.898,222.134 73.481,221.147 70.917 L 220.795 70.000 219.923 70.000 C 219.071 70.000,219.045 70.014,218.799 70.625 M227.833 73.667 L 227.833 77.333 230.500 77.333 L 233.167 77.333 233.167 76.583 L 233.167 75.833 231.417 75.833 L 229.667 75.833 229.667 72.917 L 229.667 70.000 228.750 70.000 L 227.833 70.000 227.833 73.667 M256.533 70.618 C 256.435 70.965,256.158 71.775,255.918 72.417 C 255.677 73.058,255.379 73.883,255.254 74.250 C 255.130 74.617,254.836 75.442,254.601 76.083 C 254.366 76.725,254.172 77.272,254.170 77.300 C 254.168 77.327,254.592 77.327,255.111 77.300 C 256.026 77.252,256.061 77.232,256.250 76.667 L 256.445 76.083 257.692 76.035 L 258.938 75.987 259.094 76.619 C 259.250 77.250,259.251 77.250,260.208 77.300 C 261.319 77.358,261.293 77.425,260.737 75.916 C 260.308 74.755,259.775 73.227,259.079 71.167 L 258.712 70.083 257.712 70.034 L 256.711 69.985 256.533 70.618 M265.667 73.667 L 265.667 77.333 268.333 77.333 L 271.000 77.333 271.000 76.583 L 271.000 75.833 269.250 75.833 L 267.500 75.833 267.500 72.917 L 267.500 70.000 266.583 70.000 L 265.667 70.000 265.667 73.667 M275.667 73.667 L 275.667 77.333 278.500 77.333 L 281.333 77.333 281.333 76.583 L 281.333 75.833 279.333 75.833 L 277.333 75.833 277.333 75.000 L 277.333 74.167 279.083 74.167 L 280.833 74.167 280.833 73.500 L 280.833 72.833 279.083 72.833 L 277.333 72.833 277.333 72.167 L 277.333 71.500 279.250 71.500 L 281.167 71.500 281.167 70.750 L 281.167 70.000 278.417 70.000 L 275.667 70.000 275.667 73.667 M286.000 73.667 L 286.000 77.333 286.833 77.333 L 287.667 77.333 287.682 75.125 L 287.697 72.917 287.995 74.083 C 288.159 74.725,288.387 75.719,288.503 76.292 L 288.712 77.333 289.583 77.333 L 290.454 77.333 290.662 76.292 C 290.776 75.719,291.005 74.762,291.171 74.167 L 291.474 73.083 291.487 75.208 L 291.500 77.333 292.333 77.333 L 293.167 77.333 293.167 73.667 L 293.167 70.000 292.005 70.000 L 290.843 70.000 290.590 70.875 C 290.451 71.356,290.261 72.125,290.168 72.583 C 289.696 74.900,289.560 75.302,289.463 74.667 C 289.328 73.782,288.653 70.819,288.488 70.384 C 288.354 70.033,288.240 70.000,287.171 70.000 L 286.000 70.000 286.000 73.667 M220.385 73.792 C 220.491 74.327,220.485 74.333,219.850 74.333 L 219.208 74.333 219.464 73.542 C 219.605 73.106,219.752 72.637,219.789 72.500 C 219.871 72.204,220.223 72.967,220.385 73.792 M258.328 74.208 C 258.331 74.277,258.039 74.333,257.678 74.333 L 257.023 74.333 257.177 73.792 C 257.262 73.494,257.417 73.041,257.522 72.785 L 257.713 72.319 258.018 73.201 C 258.185 73.686,258.325 74.140,258.328 74.208 " stroke="none" fill="#04549c" fill-rule="evenodd"></path><path id="path1" d="M173.574 13.902 C 160.684 21.054,158.430 37.610,168.983 47.634 L 169.913 48.518 170.730 47.634 C 172.371 45.858,172.236 46.124,171.871 45.393 C 167.799 37.220,168.281 27.090,173.150 18.503 C 173.645 17.631,174.373 16.520,174.768 16.035 C 175.545 15.081,175.551 14.973,174.881 13.872 L 174.565 13.352 173.574 13.902 " stroke="none" fill="#6cc374" fill-rule="evenodd"></path><path id="path2" d="M160.999 3.226 C 158.852 4.326,157.633 5.040,157.211 5.441 C 157.098 5.549,156.913 5.668,156.799 5.706 C 156.601 5.772,157.374 9.391,157.650 9.693 C 157.705 9.754,159.195 8.356,160.961 6.587 L 164.171 3.371 163.339 2.935 C 162.333 2.409,162.673 2.367,160.999 3.226 M135.918 3.719 C 135.352 4.056,134.833 4.669,134.833 5.001 C 134.833 5.176,134.563 6.353,134.234 7.618 C 133.126 11.862,133.002 12.270,131.879 15.333 C 130.667 18.643,128.316 23.550,127.008 25.500 C 126.916 25.637,126.370 26.465,125.795 27.338 C 125.220 28.212,124.657 29.037,124.543 29.172 C 122.806 31.230,122.341 31.895,122.410 32.223 C 122.904 34.571,123.233 35.940,123.330 36.049 C 123.796 36.571,128.658 32.148,130.447 29.575 C 131.777 27.662,134.167 23.075,134.167 22.435 C 134.167 22.337,134.310 21.880,134.486 21.420 C 135.039 19.972,135.848 16.597,136.284 13.917 C 136.624 11.828,136.729 3.652,136.417 3.566 C 136.325 3.541,136.101 3.610,135.918 3.719 M167.964 7.824 C 166.379 8.619,164.311 9.885,163.400 10.617 C 163.023 10.919,162.661 11.167,162.594 11.167 C 162.424 11.167,161.184 12.218,159.798 13.538 L 158.620 14.660 158.734 15.622 C 159.172 19.296,159.340 21.878,159.343 24.979 C 159.348 28.564,159.406 29.168,159.586 27.492 C 159.639 26.992,159.706 26.471,159.735 26.333 C 159.763 26.196,159.844 25.763,159.915 25.371 C 159.986 24.980,160.109 24.619,160.189 24.570 C 160.268 24.521,160.333 24.309,160.333 24.100 C 160.333 23.730,161.184 21.108,161.490 20.536 C 161.575 20.379,161.945 19.606,162.313 18.819 C 162.682 18.032,163.099 17.292,163.241 17.174 C 163.384 17.056,163.500 16.887,163.500 16.800 C 163.500 16.602,164.501 15.072,165.476 13.780 C 166.408 12.546,169.809 9.000,170.062 9.000 C 170.674 9.000,170.675 8.319,170.065 7.744 C 169.327 7.048,169.524 7.040,167.964 7.824 M129.873 8.572 C 125.612 13.234,122.746 19.383,122.352 24.708 C 122.225 26.425,122.202 26.411,123.273 25.292 C 126.410 22.015,129.722 15.300,130.491 10.656 C 130.573 10.158,130.720 9.412,130.816 9.000 C 131.194 7.386,131.027 7.309,129.873 8.572 M159.105 31.458 C 159.055 31.802,158.968 32.496,158.912 33.000 C 158.562 36.143,157.448 40.548,156.223 43.629 L 155.807 44.674 156.773 46.110 C 157.303 46.899,157.953 47.760,158.215 48.023 C 158.478 48.285,158.659 48.500,158.618 48.500 C 158.527 48.500,161.279 51.179,161.750 51.549 C 161.933 51.694,162.438 52.077,162.872 52.402 L 163.661 52.993 164.664 52.405 C 165.215 52.082,165.872 51.641,166.122 51.425 L 166.578 51.033 166.235 50.725 C 165.835 50.366,164.780 49.031,164.607 48.667 C 164.542 48.529,164.193 47.967,163.832 47.417 C 162.713 45.713,161.839 43.889,160.750 40.988 C 160.432 40.141,159.898 37.811,159.664 36.250 C 159.555 35.517,159.433 34.767,159.393 34.583 C 159.354 34.400,159.316 33.481,159.308 32.542 C 159.294 30.709,159.249 30.471,159.105 31.458 M154.000 48.149 C 154.000 48.231,153.430 49.145,152.734 50.180 L 151.468 52.061 152.276 52.840 C 155.073 55.535,155.886 55.917,157.583 55.333 C 158.116 55.150,158.672 54.999,158.818 54.997 C 159.215 54.994,159.614 54.690,159.417 54.542 C 159.210 54.386,157.768 52.672,156.999 51.667 C 156.683 51.254,156.382 50.879,156.329 50.833 C 156.276 50.788,155.974 50.375,155.658 49.917 C 155.342 49.458,155.044 49.046,154.996 49.000 C 154.948 48.954,154.778 48.710,154.617 48.458 C 154.334 48.014,154.000 47.846,154.000 48.149 " stroke="none" fill="#1eafbc" fill-rule="evenodd"></path><path id="path3" d="M146.666 4.042 C 146.665 7.488,146.537 9.824,146.078 14.750 C 145.851 17.194,144.890 22.476,144.159 25.296 C 141.726 34.695,138.197 41.474,133.049 46.638 C 132.014 47.677,131.167 48.562,131.167 48.605 C 131.167 48.764,132.127 49.582,133.640 50.711 C 135.459 52.068,135.239 52.087,137.336 50.395 C 140.174 48.106,140.524 47.746,143.692 43.861 C 144.647 42.689,147.299 37.845,147.927 36.125 C 148.774 33.806,149.059 32.954,149.361 31.833 C 149.547 31.146,149.732 30.396,149.774 30.167 C 149.815 29.938,149.918 29.488,150.001 29.167 C 150.802 26.101,151.276 16.104,150.808 12.167 C 150.543 9.942,150.284 8.165,150.064 7.081 C 149.935 6.438,149.794 5.642,149.751 5.312 C 149.709 4.982,149.410 3.680,149.087 2.420 C 148.764 1.160,148.500 0.100,148.500 0.064 C 148.500 0.029,148.087 0.000,147.583 0.000 L 146.667 0.000 146.666 4.042 M141.314 1.281 L 140.545 1.507 140.456 3.545 C 139.845 17.498,134.487 31.392,126.648 39.348 C 125.358 40.657,125.252 40.814,125.410 41.181 C 125.664 41.771,126.934 43.840,127.387 44.402 L 127.779 44.888 128.764 44.241 C 129.306 43.886,129.787 43.554,129.833 43.505 C 129.879 43.455,130.217 43.195,130.583 42.926 C 132.132 41.790,136.000 37.697,136.000 37.194 C 136.000 37.102,136.061 37.003,136.135 36.972 C 136.525 36.811,138.565 33.281,139.538 31.083 C 142.828 23.648,144.084 14.468,143.002 5.754 C 142.797 4.106,142.563 2.582,142.481 2.368 C 142.400 2.154,142.333 1.800,142.333 1.582 C 142.333 1.051,142.214 1.016,141.314 1.281 M158.705 16.333 C 158.705 16.654,158.740 16.785,158.782 16.625 C 158.823 16.465,158.823 16.202,158.782 16.042 C 158.740 15.881,158.705 16.012,158.705 16.333 M158.872 17.667 C 158.872 17.987,158.906 18.119,158.948 17.958 C 158.990 17.798,158.990 17.535,158.948 17.375 C 158.906 17.215,158.872 17.346,158.872 17.667 M159.218 21.583 C 159.219 22.133,159.250 22.338,159.287 22.039 C 159.325 21.739,159.324 21.289,159.286 21.039 C 159.248 20.788,159.217 21.033,159.218 21.583 M159.212 29.667 C 159.212 30.079,159.245 30.248,159.284 30.042 C 159.324 29.835,159.324 29.498,159.284 29.292 C 159.245 29.085,159.212 29.254,159.212 29.667 M158.705 33.833 C 158.705 34.154,158.740 34.285,158.782 34.125 C 158.823 33.965,158.823 33.702,158.782 33.542 C 158.740 33.381,158.705 33.512,158.705 33.833 " stroke="none" fill="#126da9" fill-rule="evenodd"></path><path id="path4" d="M176.492 22.674 C 174.818 24.449,174.833 24.431,174.833 24.584 C 174.833 24.661,174.709 24.861,174.556 25.030 C 174.404 25.198,174.183 25.504,174.064 25.709 C 171.404 30.322,171.302 35.831,173.786 40.789 C 174.701 42.615,174.779 42.596,175.891 40.273 C 178.374 35.084,179.332 27.955,178.221 22.917 C 177.858 21.266,177.823 21.261,176.492 22.674 " stroke="none" fill="#8cc443" fill-rule="evenodd"></path></g></svg>